<svg width="1222" height="1222" viewBox="0 0 1222 1222" fill="none" xmlns="http://www.w3.org/2000/svg">
<rect width="1222" height="1222" fill="#1F261E"/>
<g clip-path="url(#clip0_161_775)">
<path d="M413.052 900.68C407.368 875.42 406.575 849.995 409.383 824.259C413.991 782.043 428.129 743.391 451.114 707.823C471.425 676.392 496.677 649.208 523.542 623.416C557.567 590.748 593.973 560.683 627.959 527.97C648.276 508.415 667.666 488.019 684.439 465.284C711.18 429.04 724.866 388.043 728.684 343.441C731.71 308.086 728.584 273.301 719.521 239.02C712.571 212.73 703.005 187.33 693.368 161.953C691.653 157.439 689.996 152.902 688.249 148.4C686.511 143.917 684.694 139.465 682.911 135C688.555 158.834 691.801 182.809 691.313 207.262C691.076 219.095 689.961 230.831 688.357 242.549C682.028 288.779 665.746 331.021 638.501 369.039C613.863 403.42 583.708 432.546 552.402 460.627C523.629 486.435 493.868 511.137 466.053 538.019C439.363 563.814 414.94 591.408 395.414 623.187C366.772 669.804 355.595 721.908 347.011 774.858C344.867 788.08 346.878 801.458 346.381 814.762C346.124 821.659 349.551 828 350.348 834.798C351.587 845.376 353.101 855.911 355.227 866.358C365.619 917.444 385.726 964.086 421.065 1002.87C480.841 1068.48 554.964 1097.34 643.367 1084.09C706.997 1074.56 757.401 1041.85 794.641 989.543C832.565 936.278 846.823 875.434 849.562 811.206C850.665 785.323 848.658 759.615 844.552 734.059C839.78 704.36 832.967 675.247 819.43 648.119C804.716 618.634 784.045 594.497 755.129 578.141C738.183 568.557 720.039 563.693 700.419 567.505C678.54 571.756 662.96 584.91 651.485 603.316C642.738 617.345 636.31 632.587 629.738 647.704C616.118 679.029 603.513 710.786 594.869 743.87C585.738 778.814 594.268 808.756 622.686 832.134C629.402 837.659 636.646 842.438 644.45 846.251C659.565 853.637 674.799 860.779 689.957 868.078C711.366 878.388 731.75 890.268 749.043 906.858C757.21 914.693 759.89 924.141 757.377 935.102C756.596 938.507 755.604 941.863 754.8 945.263C754.401 946.95 753.445 948.748 755.316 950.537C759.273 948.662 760.733 944.806 762.329 941.312C768.693 927.372 774.995 913.397 780.15 898.946C787.913 877.185 792.131 854.975 788.607 831.784C785.262 809.773 775.065 792.338 755.233 781.173C745.467 775.675 735.168 771.427 724.691 767.555C704.807 760.205 685.268 752.128 667.748 739.93C649.506 727.23 635.945 711.165 631.36 688.727C629.724 680.717 631.881 675.681 638.895 671.481C664.375 656.223 700.101 659.573 722.473 679.203C755.014 707.754 777.491 742.695 789.534 784.313C799.084 817.316 801.973 850.679 794.335 884.454C785.911 921.706 765.992 952.224 737.459 976.969C685.732 1021.83 625.675 1041.51 557.535 1031.87C484.715 1021.57 431.182 972.313 413.052 900.68ZM854.488 571.531C860.577 568.837 866.654 566.111 872.762 563.461C875.796 562.146 877.245 560.343 875.916 556.838C870.367 542.212 864.925 527.545 859.472 512.883C858.215 509.504 856.012 508.718 852.798 510.131C838.624 516.36 824.451 522.59 810.255 528.769C806.884 530.237 805.942 532.376 807.283 535.91C812.714 550.226 818.056 564.576 823.302 578.96C824.81 583.094 827.14 583.787 830.987 581.997C838.533 578.487 846.19 575.217 854.488 571.531ZM808.13 467.029C810.841 474.371 813.609 481.692 816.24 489.063C817.451 492.456 819.428 493.409 822.76 491.926C837.217 485.489 851.69 479.09 866.181 472.731C869.242 471.388 869.862 469.476 868.669 466.365C863.125 451.902 857.704 437.392 852.294 422.878C850.892 419.114 848.703 418.164 844.941 419.855C831.116 426.069 817.237 432.168 803.334 438.207C799.723 439.775 798.681 441.969 800.162 445.705C802.862 452.515 805.319 459.421 808.13 467.029ZM790.771 505.396C790.662 504.085 790.84 502.668 790.399 501.48C785.082 487.136 779.7 472.816 774.271 458.514C772.634 454.202 769.505 454.005 765.738 455.662C752.494 461.485 739.253 467.316 725.959 473.025C721.811 474.806 720.61 477.305 722.271 481.656C727.491 495.322 732.528 509.059 737.536 522.805C739.161 527.264 741.95 528.235 746.117 526.385C751.893 523.82 757.782 521.495 763.472 518.756C772.439 514.438 782.136 511.657 790.771 505.396Z" fill="#F2D5A9"/>
</g>
<defs>
<clipPath id="clip0_161_775">
<rect width="531" height="953" fill="white" transform="translate(346 135)"/>
</clipPath>
</defs>
</svg>
