<svg width="531" height="953" viewBox="0 0 531 953" fill="none" xmlns="http://www.w3.org/2000/svg">
<path d="M67.0523 765.68C61.3684 740.42 60.5745 714.995 63.3833 689.259C67.9908 647.043 82.1287 608.391 105.114 572.823C125.425 541.392 150.677 514.208 177.542 488.416C211.567 455.748 247.973 425.683 281.959 392.97C302.276 373.415 321.666 353.019 338.439 330.284C365.18 294.04 378.866 253.043 382.684 208.441C385.71 173.086 382.584 138.301 373.521 104.02C366.571 77.7302 357.005 52.3303 347.368 26.9534C345.653 22.4386 343.996 17.9021 342.249 13.3997C340.511 8.91732 338.694 4.46532 336.911 0C342.555 23.8336 345.801 47.8088 345.313 72.2618C345.076 84.0949 343.961 95.8311 342.357 107.549C336.028 153.779 319.746 196.021 292.501 234.039C267.863 268.42 237.708 297.546 206.402 325.627C177.629 351.435 147.868 376.137 120.053 403.019C93.3628 428.814 68.94 456.408 49.4141 488.187C20.7716 534.804 9.59542 586.908 1.01078 639.858C-1.13285 653.08 0.87806 666.458 0.381188 679.762C0.123574 686.659 3.55148 693 4.34797 699.798C5.58736 710.376 7.10134 720.911 9.22665 731.358C19.6193 782.444 39.7258 829.086 75.0654 867.872C134.841 933.477 208.964 962.337 297.367 949.092C360.997 939.559 411.401 906.848 448.641 854.543C486.565 801.278 500.823 740.434 503.562 676.206C504.665 650.323 502.658 624.615 498.552 599.059C493.78 569.36 486.967 540.247 473.43 513.119C458.716 483.634 438.045 459.497 409.129 443.141C392.183 433.557 374.039 428.693 354.419 432.505C332.54 436.756 316.96 449.91 305.485 468.316C296.738 482.345 290.31 497.587 283.738 512.704C270.118 544.029 257.513 575.786 248.869 608.87C239.738 643.814 248.268 673.756 276.686 697.134C283.402 702.659 290.646 707.438 298.45 711.251C313.565 718.637 328.799 725.779 343.957 733.078C365.366 743.388 385.75 755.268 403.043 771.858C411.21 779.693 413.89 789.141 411.377 800.102C410.596 803.507 409.604 806.863 408.8 810.263C408.401 811.95 407.445 813.748 409.316 815.537C413.273 813.662 414.733 809.806 416.329 806.312C422.693 792.372 428.995 778.397 434.15 763.946C441.913 742.185 446.131 719.975 442.607 696.784C439.262 674.773 429.065 657.338 409.233 646.173C399.467 640.675 389.168 636.427 378.691 632.555C358.807 625.205 339.268 617.128 321.748 604.93C303.506 592.23 289.945 576.165 285.36 553.727C283.724 545.717 285.881 540.681 292.895 536.481C318.375 521.223 354.101 524.573 376.473 544.203C409.014 572.754 431.491 607.695 443.534 649.313C453.084 682.316 455.973 715.679 448.335 749.454C439.911 786.706 419.992 817.224 391.459 841.969C339.732 886.827 279.675 906.513 211.535 896.872C138.715 886.57 85.1823 837.313 67.0523 765.68ZM508.488 436.531C514.577 433.837 520.654 431.111 526.762 428.461C529.796 427.146 531.245 425.343 529.916 421.838C524.367 407.212 518.925 392.545 513.472 377.883C512.215 374.504 510.012 373.718 506.798 375.131C492.624 381.36 478.451 387.59 464.255 393.769C460.884 395.237 459.942 397.376 461.283 400.91C466.714 415.226 472.056 429.576 477.302 443.96C478.81 448.094 481.14 448.787 484.987 446.997C492.533 443.487 500.19 440.217 508.488 436.531ZM462.13 332.029C464.841 339.371 467.609 346.692 470.24 354.063C471.451 357.456 473.428 358.409 476.76 356.926C491.217 350.489 505.69 344.09 520.181 337.731C523.242 336.388 523.862 334.476 522.669 331.365C517.125 316.902 511.704 302.392 506.294 287.878C504.892 284.114 502.703 283.164 498.941 284.855C485.116 291.069 471.237 297.168 457.334 303.207C453.723 304.775 452.681 306.969 454.162 310.705C456.862 317.515 459.319 324.421 462.13 332.029ZM444.771 370.396C444.662 369.085 444.84 367.668 444.399 366.48C439.082 352.136 433.7 337.816 428.271 323.514C426.634 319.202 423.505 319.005 419.738 320.662C406.494 326.485 393.253 332.316 379.959 338.025C375.811 339.806 374.61 342.305 376.271 346.656C381.491 360.322 386.528 374.059 391.536 387.805C393.161 392.264 395.95 393.235 400.117 391.385C405.893 388.82 411.782 386.495 417.472 383.756C426.439 379.438 436.136 376.657 444.771 370.396Z" fill="#ECDFCB"/>
</svg>
