<svg width="2681" height="2681" viewBox="0 0 2681 2681" fill="none" xmlns="http://www.w3.org/2000/svg">
<rect width="2681" height="2681" fill="#1F261E"/>
<path d="M1207.89 1290.47C1202.8 1267.84 1202.09 1245.07 1204.6 1222.03C1208.73 1184.22 1221.39 1149.6 1241.98 1117.75C1260.17 1089.6 1282.78 1065.25 1306.84 1042.15C1337.31 1012.9 1369.92 985.971 1400.36 956.674C1418.55 939.161 1435.92 920.894 1450.94 900.534C1474.89 868.074 1487.14 831.357 1490.56 791.413C1493.27 759.75 1490.47 728.597 1482.36 697.895C1476.13 674.351 1467.57 651.603 1458.94 628.876C1457.4 624.832 1455.91 620.77 1454.35 616.737C1452.79 612.723 1451.17 608.736 1449.57 604.737C1454.62 626.082 1457.53 647.554 1457.09 669.453C1456.88 680.051 1455.88 690.561 1454.45 701.056C1448.78 742.458 1434.2 780.29 1409.8 814.338C1387.73 845.129 1360.73 871.214 1332.69 896.362C1306.92 919.476 1280.27 941.598 1255.36 965.674C1231.45 988.775 1209.58 1013.49 1192.09 1041.95C1166.44 1083.7 1156.43 1130.36 1148.74 1177.78C1146.82 1189.62 1148.62 1201.6 1148.18 1213.52C1147.95 1219.7 1151.02 1225.38 1151.73 1231.46C1152.84 1240.94 1154.2 1250.37 1156.1 1259.73C1165.41 1305.48 1183.42 1347.25 1215.07 1381.99C1268.6 1440.74 1334.98 1466.59 1414.15 1454.73C1471.14 1446.19 1516.28 1416.89 1549.63 1370.05C1583.6 1322.35 1596.37 1267.86 1598.82 1210.33C1599.81 1187.15 1598.01 1164.13 1594.33 1141.24C1590.06 1114.65 1583.96 1088.57 1571.83 1064.28C1558.66 1037.87 1540.14 1016.25 1514.25 1001.61C1499.07 993.022 1482.82 988.667 1465.25 992.081C1445.66 995.888 1431.7 1007.67 1421.43 1024.15C1413.59 1036.72 1407.84 1050.37 1401.95 1063.91C1389.75 1091.96 1378.46 1120.4 1370.72 1150.03C1362.54 1181.33 1370.18 1208.14 1395.63 1229.08C1401.65 1234.03 1408.14 1238.31 1415.12 1241.72C1428.66 1248.34 1442.31 1254.73 1455.88 1261.27C1475.05 1270.5 1493.31 1281.14 1508.8 1296C1516.11 1303.02 1518.51 1311.48 1516.26 1321.29C1515.56 1324.34 1514.67 1327.35 1513.95 1330.39C1513.6 1331.91 1512.74 1333.52 1514.42 1335.12C1517.96 1333.44 1519.27 1329.99 1520.69 1326.86C1526.39 1314.37 1532.04 1301.86 1536.66 1288.91C1543.61 1269.42 1547.39 1249.53 1544.23 1228.76C1541.23 1209.05 1532.1 1193.44 1514.34 1183.44C1505.59 1178.51 1496.37 1174.71 1486.99 1171.24C1469.18 1164.66 1451.68 1157.43 1435.99 1146.5C1419.65 1135.13 1407.51 1120.74 1403.4 1100.64C1401.94 1093.47 1403.87 1088.96 1410.15 1085.2C1432.97 1071.53 1464.96 1074.54 1485 1092.12C1514.14 1117.69 1534.27 1148.98 1545.06 1186.25C1553.61 1215.81 1556.2 1245.69 1549.36 1275.94C1541.81 1309.3 1523.98 1336.63 1498.42 1358.79C1452.1 1398.96 1398.31 1416.59 1337.29 1407.96C1272.07 1398.73 1224.13 1354.62 1207.89 1290.47ZM1603.23 995.686C1608.68 993.274 1614.13 990.833 1619.6 988.459C1622.31 987.281 1623.61 985.667 1622.42 982.528C1617.45 969.429 1612.58 956.293 1607.69 943.162C1606.57 940.136 1604.6 939.432 1601.72 940.697C1589.02 946.276 1576.33 951.855 1563.62 957.389C1560.6 958.704 1559.75 960.62 1560.95 963.785C1565.82 976.606 1570.6 989.457 1575.3 1002.34C1576.65 1006.04 1578.74 1006.66 1582.18 1005.06C1588.94 1001.92 1595.8 998.987 1603.23 995.686ZM1561.71 902.096C1564.14 908.671 1566.62 915.228 1568.98 921.829C1570.06 924.868 1571.83 925.722 1574.82 924.393C1587.76 918.629 1600.73 912.898 1613.7 907.203C1616.44 906 1617 904.288 1615.93 901.501C1610.97 888.549 1606.11 875.554 1601.27 862.555C1600.01 859.185 1598.05 858.334 1594.68 859.848C1582.3 865.413 1569.87 870.875 1557.42 876.283C1554.18 877.688 1553.25 879.653 1554.58 882.998C1557 889.097 1559.2 895.283 1561.71 902.096ZM1546.17 936.457C1546.07 935.283 1546.23 934.014 1545.83 932.95C1541.07 920.104 1536.25 907.279 1531.39 894.471C1529.92 890.609 1527.12 890.432 1523.75 891.916C1511.89 897.131 1500.03 902.354 1488.12 907.466C1484.41 909.061 1483.33 911.299 1484.82 915.196C1489.5 927.435 1494.01 939.737 1498.49 952.048C1499.95 956.042 1502.44 956.911 1506.18 955.254C1511.35 952.957 1516.62 950.875 1521.72 948.422C1529.75 944.555 1538.43 942.064 1546.17 936.457Z" fill="#F2D5A9"/>
<path d="M824.54 1675.09C824.54 1704.65 824.54 1733.69 824.54 1762.59C824.971 1762.95 825.231 1763.36 825.483 1763.35C841.19 1763.02 856.975 1763.51 872.583 1762.07C893.886 1760.11 905.503 1748.95 909.64 1727.91C911.379 1719.06 911.91 1709.98 912.971 1701C913.108 1699.84 913.13 1698.66 913.227 1697.16C916.03 1697.16 918.689 1697.16 921.393 1697.16C922.54 1700.54 923.089 1831.39 921.92 1842.71C919.197 1842.71 916.422 1842.71 913.382 1842.71C912.675 1835.44 912.055 1828.17 911.242 1820.92C910.343 1812.9 908.33 1805.17 904.767 1797.89C900.032 1788.21 892.392 1781.98 881.888 1779.88C875.402 1778.58 868.717 1777.9 862.1 1777.72C849.825 1777.38 837.534 1777.62 824.896 1777.62C824.896 1837.04 824.896 1896.22 824.896 1955.69C826.298 1955.78 827.616 1955.96 828.934 1955.96C854.74 1955.91 880.55 1956.08 906.352 1955.68C920.146 1955.46 934.013 1955.19 947.579 1952.04C962.948 1948.47 976.474 1941.73 986.538 1929.14C994.688 1918.95 999.892 1907.37 1002.5 1894.62C1004.84 1883.23 1006.25 1871.74 1006.16 1860.09C1006.15 1858.07 1006.16 1856.06 1006.16 1853.72C1009.66 1853.72 1012.63 1853.72 1015.94 1853.72C1015.94 1891.58 1015.94 1929.28 1015.94 1967.34C919.247 1967.34 822.602 1967.34 725.609 1967.34C725.609 1964.39 725.609 1961.4 725.609 1957.84C734.82 1957.21 744.158 1957.92 753.814 1957.43C753.814 1835.44 753.814 1713.51 753.814 1591.54C753.599 1591.39 753.327 1591.02 753.062 1591.03C739.062 1591.28 725.053 1591.33 711.068 1591.93C703.254 1592.27 697.555 1596.78 694.307 1603.72C691.353 1610.04 688.835 1616.6 686.649 1623.22C671.425 1669.37 656.339 1715.56 641.205 1761.73C625.434 1809.85 609.658 1857.96 593.885 1906.08C586.077 1929.89 578.273 1953.71 570.458 1977.53C570.036 1978.82 569.532 1980.08 568.706 1982.33C526.294 1851.42 484.168 1721.39 441.901 1590.93C431.882 1590.93 421.863 1590.93 411.572 1590.93C411.572 1587.48 411.572 1584.51 411.572 1581.3C458.906 1581.3 506.001 1581.3 553.446 1581.3C553.446 1584.44 553.446 1587.39 553.446 1590.8C541.334 1590.8 529.433 1590.8 516.73 1590.8C543.462 1679.47 570.001 1767.51 596.644 1855.88C598.539 1854.79 598.623 1853.01 599.11 1851.55C608.192 1824.39 617.334 1797.24 626.269 1770.03C638.236 1733.58 650.209 1697.14 661.819 1660.58C666.146 1646.96 669.671 1633.06 673.108 1619.18C674.148 1614.98 673.956 1610.38 673.798 1605.99C673.655 1602.03 671.352 1599.06 668.05 1596.8C661.399 1592.23 653.783 1591.34 646.078 1590.95C641.168 1590.7 636.234 1590.9 631.015 1590.9C631.015 1587.5 631.015 1584.54 631.015 1581.3C759.14 1581.3 887.073 1581.3 1015.62 1581.3C1015.62 1612.79 1015.62 1644.13 1015.62 1675.77C1012.74 1675.77 1009.75 1675.77 1006.49 1675.77C1005.4 1670.47 1004.42 1665.15 1003.21 1659.88C1000.07 1646.27 995.11 1633.48 986.283 1622.41C974.913 1608.15 959.994 1599.71 942.349 1596.23C934.029 1594.59 925.469 1593.59 916.995 1593.42C888.293 1592.86 859.58 1592.8 830.871 1592.55C828.996 1592.54 827.12 1592.55 824.54 1592.55C824.54 1620.02 824.54 1647.3 824.54 1675.09Z" fill="#F2D5A9"/>
<path d="M2052.85 1597.17C2052.85 1594.96 2052.85 1593.27 2052.85 1591.13C2042.37 1591.13 2032.18 1591.13 2021.57 1591.13C2021.57 1587.74 2021.57 1584.78 2021.57 1581.42C2022.72 1581.31 2024.01 1581.07 2025.29 1581.07C2081.18 1581.06 2137.07 1580.83 2192.96 1581.21C2212.73 1581.35 2232.03 1584.96 2249.56 1594.93C2271.55 1607.44 2284.58 1626.48 2289.3 1651.13C2292.14 1666.01 2292.28 1681.05 2289.09 1695.93C2284.04 1719.43 2270.83 1737.14 2250.22 1749.37C2240.62 1755.08 2230.28 1759.03 2219.52 1761.93C2218.21 1762.28 2216.89 1762.61 2215.27 1763.02C2215.27 1765.07 2215.27 1767.03 2215.27 1769.31C2218.68 1770.49 2222.21 1771.65 2225.7 1772.92C2247.08 1780.65 2261.14 1796.09 2270.62 1816.12C2278.02 1831.74 2281.44 1848.4 2282.47 1865.57C2283.49 1882.61 2284.14 1899.69 2285.29 1916.73C2285.78 1924.02 2286.87 1931.31 2288.2 1938.5C2288.9 1942.31 2290.34 1946.08 2292.06 1949.57C2296.54 1958.66 2303.68 1961.34 2313.32 1959.73C2318.49 1958.87 2323.48 1956.97 2329.01 1955.42C2330.06 1957.93 2331.14 1960.53 2332.3 1963.32C2325.39 1967.32 2318.14 1969.25 2310.76 1970.35C2296.82 1972.42 2282.82 1972.29 2269 1969.41C2248.56 1965.15 2234.42 1953.2 2226.59 1933.82C2223.24 1925.53 2221.27 1916.89 2220.38 1908.04C2218.47 1889.03 2216.98 1869.97 2214.9 1850.98C2213.84 1841.35 2212.34 1831.7 2210.21 1822.25C2206.93 1807.69 2199.77 1795.24 2187.76 1785.96C2179.04 1779.23 2169.01 1775.5 2158.26 1773.75C2144.76 1771.55 2131.13 1771.19 2117.14 1771.48C2117.14 1833.42 2117.14 1895.19 2117.14 1957.48C2128.51 1957.48 2139.87 1957.48 2151.61 1957.48C2151.61 1960.94 2151.61 1963.91 2151.61 1966.92C2148.15 1967.89 2029.89 1968.27 2021.47 1967.28C2021.47 1964.33 2021.47 1961.34 2021.47 1957.84C2031.65 1957.84 2041.81 1957.84 2051.58 1957.84C2052.11 1957.24 2052.23 1957.11 2052.34 1956.98C2052.45 1956.86 2052.64 1956.73 2052.64 1956.6C2052.72 1836.96 2052.78 1717.32 2052.85 1597.17ZM2222.68 1669.58C2221.9 1662.81 2221.61 1655.93 2220.24 1649.28C2214.63 1622.13 2199.31 1603.51 2172.07 1595.67C2161.16 1592.54 2149.96 1591.52 2138.71 1591C2131.6 1590.67 2124.45 1590.93 2117.17 1590.93C2117.17 1648.07 2117.17 1704.82 2117.17 1761.52C2133.05 1763.12 2151.03 1761.82 2165.67 1757.68C2195.49 1749.26 2213.71 1729.72 2220.69 1699.63C2222.9 1690.07 2222.89 1680.32 2222.68 1669.58Z" fill="#F2D5A9"/>
<path d="M1616.28 1894.42C1600.35 1922.04 1579.82 1944.71 1552.19 1960.4C1534.57 1970.41 1515.51 1974.77 1495.27 1974.54C1465.91 1974.21 1440.94 1963.06 1418.83 1944.36C1397.4 1926.24 1382.09 1903.64 1370.39 1878.43C1358.08 1851.91 1350.49 1824.04 1347.78 1794.92C1342.3 1736.17 1357.1 1682.89 1391.72 1635.24C1406.97 1614.26 1425.86 1597.12 1449.07 1585.12C1470.47 1574.06 1493.17 1571.29 1516.76 1575.2C1539.88 1579.03 1559.32 1590.3 1576.7 1605.53C1599.79 1625.75 1615.99 1650.8 1627.77 1678.87C1637.66 1702.46 1643.87 1727.03 1646.23 1752.51C1649.34 1786.08 1645.67 1818.9 1635.25 1851C1630.38 1866 1624.23 1880.39 1616.28 1894.42ZM1567.68 1875.96C1571.1 1859.21 1572.87 1842.22 1573.45 1825.19C1574.26 1801.47 1574.48 1777.71 1574.41 1753.98C1574.37 1741.87 1573.47 1729.74 1572.43 1717.67C1570.5 1695.23 1566.66 1673.06 1561.01 1651.26C1556.52 1633.93 1549.71 1617.6 1538.25 1603.59C1532.6 1596.67 1526.43 1590.08 1517.89 1586.85C1497.31 1579.06 1478.35 1582.12 1461.5 1596.46C1450.88 1605.5 1443.72 1617.06 1437.93 1629.58C1430.95 1644.71 1426.96 1660.75 1423.71 1676.96C1418.77 1701.59 1416.22 1726.5 1415.47 1751.62C1414.57 1781.53 1415.03 1811.36 1418.3 1841.14C1420.29 1859.3 1423.33 1877.26 1428.01 1894.9C1432.76 1912.85 1439.77 1929.74 1451.73 1944.32C1471.19 1968.05 1501.9 1969.85 1522.66 1959.27C1534.42 1953.28 1542.8 1943.62 1549.43 1932.42C1559.59 1915.25 1564.42 1896.31 1567.68 1875.96Z" fill="#F2D5A9"/>
<path d="M1951.72 1860.34C1954.66 1829.01 1953.36 1798.06 1953.49 1767.15C1953.67 1724.93 1953.63 1682.72 1953.46 1640.5C1953.42 1631.48 1952.68 1622.42 1951.69 1613.45C1951.21 1609.12 1949.74 1604.8 1948.07 1600.75C1945.69 1594.96 1941.03 1591.32 1934.76 1590.89C1927.13 1590.37 1919.44 1590.58 1911.77 1590.51C1908.24 1590.47 1904.7 1590.5 1900.88 1590.5C1900.88 1587.52 1900.88 1584.68 1900.88 1581.84C1904.55 1580.85 2002.69 1580.44 2012.8 1581.41C2012.8 1584.3 2012.8 1587.25 2012.8 1590.6C2011.38 1590.69 2009.9 1590.83 2008.42 1590.88C2000.74 1591.16 1993.05 1591.27 1985.38 1591.71C1975.87 1592.26 1970.12 1596.93 1968.49 1606.49C1967.08 1614.7 1966.65 1623.1 1966.16 1631.44C1965.8 1637.4 1966.04 1643.4 1966.04 1649.38C1966 1715.7 1966.16 1782.02 1965.82 1848.33C1965.72 1867.81 1962.81 1887.05 1956.93 1905.75C1946.52 1938.82 1924.58 1959.99 1891.38 1969.69C1874.66 1974.57 1857.54 1976.15 1840.24 1975.73C1820.26 1975.24 1800.34 1973.86 1780.91 1968.66C1761.88 1963.57 1744.49 1955.37 1729.49 1942.22C1715.33 1929.8 1707.17 1914.32 1704.63 1895.92C1703.42 1887.16 1702.83 1878.25 1702.81 1869.41C1702.69 1778.82 1702.74 1688.24 1702.74 1597.65C1702.74 1595.62 1702.74 1593.6 1702.74 1591.06C1690.71 1591.06 1679.01 1591.06 1666.93 1591.06C1666.93 1587.6 1666.93 1584.64 1666.93 1581.36C1715.56 1581.36 1764.17 1581.36 1812.97 1581.36C1813.08 1582.44 1813.22 1583.26 1813.23 1584.09C1813.27 1586.12 1813.24 1588.15 1813.24 1590.73C1800.89 1590.73 1788.85 1590.73 1776.52 1590.73C1776.35 1592.55 1776.11 1593.85 1776.11 1595.15C1776.1 1677.36 1776.11 1759.57 1776.12 1841.78C1776.12 1859.05 1776.97 1876.28 1779.75 1893.34C1781.76 1905.71 1785.33 1917.62 1791.58 1928.55C1802.14 1947.02 1817.9 1958.5 1838.95 1961.65C1855.27 1964.09 1871.67 1963.56 1887.66 1958.8C1909.8 1952.2 1925.94 1938.39 1936.36 1917.8C1943.52 1903.64 1947.53 1888.54 1949.94 1872.95C1950.56 1868.9 1951.11 1864.85 1951.72 1860.34Z" fill="#F2D5A9"/>
<path d="M1073.69 1641.25C1073.69 1624.36 1073.69 1607.99 1073.69 1591.09C1061.45 1591.09 1049.59 1591.09 1037.34 1591.09C1037.34 1587.62 1037.34 1584.66 1037.34 1581.37C1084.56 1581.37 1131.81 1581.37 1179.37 1581.37C1179.37 1584.44 1179.37 1587.4 1179.37 1590.82C1166.12 1590.82 1153.04 1590.82 1139.62 1590.82C1139.62 1713.16 1139.62 1835.05 1139.62 1957.3C1141.13 1957.4 1142.6 1957.59 1144.08 1957.59C1171.42 1957.52 1198.76 1957.68 1226.09 1957.22C1236.64 1957.05 1247.28 1956.15 1257.67 1954.39C1280.53 1950.52 1295.65 1936.99 1303.64 1915.33C1308.65 1901.78 1311.25 1887.73 1312.12 1873.37C1312.72 1863.48 1312.94 1853.58 1313.34 1843.68C1313.39 1842.53 1313.52 1841.37 1313.65 1839.91C1316.73 1839.91 1319.52 1839.91 1322.59 1839.91C1322.59 1882.45 1322.59 1924.75 1322.59 1967.38C1227.57 1967.38 1132.64 1967.38 1037.33 1967.38C1037.33 1964.38 1037.33 1961.41 1037.33 1957.71C1049.14 1957.44 1061.02 1957.72 1072.49 1957.56C1072.99 1957.13 1073.13 1957.03 1073.23 1956.91C1073.34 1956.78 1073.49 1956.62 1073.49 1956.48C1073.56 1851.57 1073.63 1746.67 1073.69 1641.25Z" fill="#F2D5A9"/>
</svg>
