<svg width="256" height="294" viewBox="0 0 256 294" fill="none" xmlns="http://www.w3.org/2000/svg">
<rect width="256" height="294" fill="#1F261E"/>
<path d="M115.338 161.223C114.852 159.063 114.784 156.888 115.024 154.688C115.418 151.077 116.627 147.772 118.592 144.73C120.329 142.042 122.489 139.718 124.786 137.512C127.696 134.719 130.809 132.147 133.716 129.35C135.453 127.678 137.111 125.933 138.546 123.989C140.832 120.89 142.003 117.384 142.329 113.57C142.588 110.546 142.321 107.572 141.546 104.64C140.951 102.392 140.133 100.22 139.309 98.0496C139.163 97.6635 139.021 97.2755 138.871 96.8905C138.723 96.5072 138.567 96.1265 138.415 95.7446C138.898 97.7828 139.175 99.8331 139.133 101.924C139.113 102.936 139.018 103.94 138.881 104.942C138.339 108.895 136.947 112.508 134.617 115.759C132.51 118.699 129.931 121.19 127.254 123.591C124.794 125.798 122.249 127.91 119.87 130.209C117.588 132.415 115.499 134.775 113.829 137.493C111.38 141.479 110.424 145.935 109.69 150.463C109.507 151.594 109.679 152.738 109.636 153.875C109.614 154.465 109.907 155.007 109.975 155.589C110.081 156.493 110.211 157.394 110.393 158.288C111.281 162.656 113.001 166.645 116.023 169.962C121.135 175.572 127.473 178.04 135.033 176.907C140.475 176.092 144.785 173.295 147.97 168.822C151.213 164.267 152.432 159.064 152.666 153.571C152.761 151.358 152.589 149.159 152.238 146.974C151.83 144.434 151.247 141.945 150.089 139.625C148.831 137.103 147.063 135.039 144.591 133.64C143.142 132.821 141.59 132.405 139.912 132.731C138.041 133.094 136.709 134.219 135.727 135.793C134.979 136.993 134.43 138.296 133.868 139.589C132.703 142.268 131.625 144.984 130.886 147.813C130.105 150.801 130.834 153.362 133.265 155.361C133.839 155.833 134.458 156.242 135.126 156.568C136.418 157.2 137.721 157.811 139.017 158.435C140.848 159.316 142.591 160.332 144.07 161.751C144.769 162.421 144.998 163.229 144.783 164.166C144.716 164.458 144.631 164.745 144.563 165.035C144.528 165.18 144.447 165.333 144.607 165.486C144.945 165.326 145.07 164.996 145.206 164.697C145.751 163.505 146.29 162.31 146.73 161.074C147.394 159.214 147.755 157.314 147.454 155.331C147.168 153.449 146.296 151.958 144.6 151.003C143.764 150.533 142.884 150.169 141.988 149.838C140.287 149.21 138.616 148.519 137.118 147.476C135.558 146.39 134.399 145.016 134.006 143.097C133.867 142.412 134.051 141.982 134.651 141.622C136.83 140.318 139.885 140.604 141.798 142.283C144.581 144.724 146.503 147.712 147.533 151.271C148.35 154.094 148.597 156.947 147.943 159.835C147.223 163.021 145.52 165.631 143.08 167.747C138.656 171.583 133.52 173.266 127.693 172.442C121.466 171.561 116.888 167.349 115.338 161.223ZM153.087 133.075C153.608 132.845 154.128 132.612 154.65 132.385C154.91 132.273 155.034 132.118 154.92 131.819C154.445 130.568 153.98 129.314 153.514 128.06C153.406 127.771 153.218 127.704 152.943 127.824C151.731 128.357 150.519 128.89 149.305 129.418C149.017 129.544 148.936 129.727 149.051 130.029C149.515 131.253 149.972 132.48 150.421 133.71C150.55 134.064 150.749 134.123 151.078 133.97C151.723 133.67 152.378 133.39 153.087 133.075ZM149.123 124.138C149.355 124.766 149.592 125.392 149.817 126.023C149.92 126.313 150.089 126.394 150.374 126.268C151.611 125.717 152.848 125.17 154.087 124.626C154.349 124.511 154.402 124.348 154.3 124.082C153.826 122.845 153.363 121.604 152.9 120.363C152.78 120.041 152.593 119.96 152.271 120.104C151.089 120.636 149.902 121.157 148.713 121.674C148.404 121.808 148.315 121.995 148.442 122.315C148.673 122.897 148.883 123.488 149.123 124.138ZM147.639 127.42C147.629 127.307 147.645 127.186 147.607 127.085C147.152 125.858 146.692 124.633 146.228 123.41C146.088 123.042 145.82 123.025 145.498 123.166C144.365 123.664 143.233 124.163 142.096 124.651C141.741 124.804 141.639 125.017 141.781 125.389C142.227 126.558 142.658 127.733 143.086 128.908C143.225 129.29 143.464 129.373 143.82 129.214C144.314 128.995 144.818 128.796 145.304 128.562C146.071 128.193 146.9 127.955 147.639 127.42Z" fill="#F2D5A9"/>
<path d="M78.7333 197.949C78.7333 200.771 78.7333 203.545 78.7333 206.304C78.7744 206.339 78.7993 206.377 78.8233 206.377C80.3231 206.345 81.8304 206.392 83.3207 206.255C85.3549 206.068 86.4641 205.002 86.8592 202.993C87.0253 202.148 87.0759 201.281 87.1772 200.424C87.1904 200.312 87.1925 200.2 87.2017 200.057C87.4693 200.057 87.7233 200.057 87.9814 200.057C88.091 200.379 88.1434 212.874 88.0317 213.955C87.7717 213.955 87.5067 213.955 87.2165 213.955C87.149 213.26 87.0897 212.566 87.0121 211.874C86.9263 211.108 86.7341 210.37 86.3939 209.675C85.9417 208.751 85.2122 208.155 84.2092 207.955C83.5899 207.831 82.9515 207.766 82.3197 207.749C81.1476 207.717 79.974 207.739 78.7672 207.739C78.7672 213.413 78.7672 219.064 78.7672 224.742C78.9011 224.752 79.0269 224.768 79.1528 224.768C81.617 224.763 84.0815 224.78 86.5452 224.741C87.8623 224.721 89.1865 224.695 90.4819 224.394C91.9493 224.053 93.2409 223.409 94.2019 222.208C94.9801 221.235 95.477 220.128 95.7265 218.911C95.9494 217.824 96.0842 216.726 96.0759 215.614C96.0745 215.422 96.0757 215.229 96.0757 215.006C96.4096 215.006 96.6929 215.006 97.0098 215.006C97.0098 218.621 97.0098 222.221 97.0098 225.855C87.7765 225.855 78.5482 225.855 69.2867 225.855C69.2867 225.573 69.2867 225.288 69.2867 224.948C70.1662 224.887 71.0579 224.956 71.9798 224.909C71.9798 213.261 71.9798 201.618 71.9798 189.971C71.9593 189.956 71.9334 189.922 71.9081 189.922C70.5713 189.946 69.2336 189.951 67.8982 190.009C67.1521 190.041 66.6079 190.471 66.2977 191.135C66.0157 191.738 65.7752 192.364 65.5665 192.997C64.1128 197.403 62.6723 201.813 61.2272 206.222C59.7212 210.816 58.2148 215.411 56.7087 220.005C55.9632 222.28 55.218 224.554 54.4718 226.828C54.4315 226.951 54.3834 227.071 54.3045 227.287C50.2547 214.786 46.2322 202.37 42.1963 189.913C41.2396 189.913 40.2829 189.913 39.3003 189.913C39.3003 189.583 39.3003 189.3 39.3003 188.993C43.82 188.993 48.317 188.993 52.8473 188.993C52.8473 189.294 52.8473 189.575 52.8473 189.901C51.6908 189.901 50.5544 189.901 49.3415 189.901C51.894 198.368 54.4281 206.774 56.9722 215.212C57.1532 215.108 57.1611 214.938 57.2076 214.799C58.0749 212.205 58.9478 209.613 59.801 207.014C60.9437 203.534 62.0869 200.054 63.1956 196.564C63.6087 195.263 63.9453 193.936 64.2734 192.61C64.3728 192.209 64.3545 191.771 64.3394 191.351C64.3257 190.972 64.1058 190.689 63.7905 190.473C63.1554 190.037 62.4283 189.952 61.6925 189.915C61.2236 189.891 60.7525 189.91 60.2542 189.91C60.2542 189.586 60.2542 189.303 60.2542 188.994C72.4884 188.994 84.7043 188.994 96.9785 188.994C96.9785 192.001 96.9785 194.993 96.9785 198.014C96.7043 198.014 96.4185 198.014 96.1072 198.014C96.0033 197.508 95.9093 197 95.7934 196.497C95.494 195.197 95.0204 193.976 94.1776 192.919C93.0919 191.558 91.6673 190.751 89.9824 190.419C89.188 190.263 88.3706 190.167 87.5615 190.151C84.8208 190.097 82.0791 190.092 79.3378 190.068C79.1587 190.066 78.9796 190.068 78.7333 190.068C78.7333 192.691 78.7333 195.295 78.7333 197.949Z" fill="#F2D5A9"/>
<path d="M196.02 190.509C196.02 190.298 196.02 190.136 196.02 189.932C195.019 189.932 194.046 189.932 193.033 189.932C193.033 189.609 193.033 189.326 193.033 189.005C193.143 188.994 193.266 188.972 193.389 188.972C198.726 188.971 204.063 188.949 209.399 188.985C211.287 188.998 213.13 189.343 214.803 190.295C216.903 191.49 218.148 193.308 218.598 195.662C218.869 197.083 218.883 198.519 218.578 199.939C218.096 202.184 216.834 203.874 214.867 205.042C213.95 205.587 212.962 205.965 211.935 206.241C211.81 206.275 211.684 206.306 211.529 206.346C211.529 206.542 211.529 206.728 211.529 206.947C211.855 207.059 212.192 207.17 212.525 207.291C214.566 208.029 215.909 209.504 216.815 211.416C217.521 212.907 217.847 214.498 217.946 216.137C218.043 217.765 218.105 219.395 218.215 221.022C218.263 221.719 218.367 222.415 218.493 223.102C218.56 223.465 218.698 223.825 218.861 224.158C219.29 225.027 219.972 225.283 220.892 225.129C221.385 225.046 221.862 224.866 222.39 224.717C222.49 224.957 222.593 225.205 222.704 225.471C222.044 225.853 221.352 226.037 220.647 226.142C219.316 226.341 217.98 226.328 216.659 226.053C214.708 225.646 213.358 224.505 212.61 222.655C212.29 221.863 212.103 221.038 212.017 220.193C211.835 218.378 211.693 216.558 211.494 214.745C211.393 213.825 211.25 212.904 211.046 212.001C210.733 210.611 210.049 209.423 208.903 208.536C208.07 207.893 207.112 207.537 206.086 207.37C204.796 207.16 203.495 207.125 202.159 207.154C202.159 213.068 202.159 218.966 202.159 224.913C203.245 224.913 204.329 224.913 205.451 224.913C205.451 225.245 205.451 225.528 205.451 225.815C205.12 225.908 193.828 225.945 193.024 225.85C193.024 225.568 193.024 225.283 193.024 224.948C193.996 224.948 194.966 224.948 195.899 224.948C195.95 224.891 195.961 224.879 195.972 224.866C195.982 224.854 196 224.842 196 224.829C196.008 213.406 196.014 201.982 196.02 190.509ZM212.237 197.423C212.162 196.777 212.135 196.12 212.004 195.485C211.468 192.892 210.005 191.114 207.404 190.366C206.363 190.067 205.293 189.969 204.219 189.92C203.54 189.888 202.857 189.914 202.162 189.914C202.162 195.37 202.162 200.788 202.162 206.202C203.679 206.355 205.395 206.231 206.793 205.836C209.64 205.032 211.381 203.166 212.047 200.292C212.258 199.38 212.257 198.449 212.237 197.423Z" fill="#F2D5A9"/>
<path d="M154.334 218.893C152.812 221.53 150.852 223.694 148.214 225.193C146.531 226.149 144.711 226.565 142.779 226.543C139.976 226.511 137.591 225.446 135.48 223.661C133.433 221.931 131.972 219.773 130.855 217.366C129.679 214.834 128.954 212.173 128.695 209.391C128.173 203.782 129.586 198.694 132.892 194.144C134.348 192.141 136.152 190.504 138.368 189.358C140.411 188.302 142.579 188.038 144.831 188.411C147.039 188.777 148.895 189.853 150.555 191.307C152.759 193.238 154.306 195.63 155.431 198.31C156.376 200.563 156.968 202.909 157.193 205.342C157.49 208.547 157.14 211.682 156.145 214.747C155.68 216.179 155.092 217.552 154.334 218.893ZM149.693 217.13C150.02 215.53 150.189 213.908 150.245 212.282C150.322 210.017 150.342 207.749 150.336 205.482C150.332 204.326 150.246 203.168 150.147 202.015C149.963 199.872 149.596 197.756 149.056 195.674C148.628 194.019 147.977 192.46 146.883 191.122C146.344 190.462 145.754 189.832 144.939 189.524C142.974 188.78 141.164 189.072 139.555 190.441C138.541 191.304 137.856 192.408 137.304 193.604C136.637 195.048 136.256 196.58 135.946 198.128C135.474 200.48 135.231 202.859 135.159 205.257C135.074 208.113 135.117 210.961 135.429 213.805C135.619 215.539 135.91 217.254 136.356 218.939C136.81 220.653 137.48 222.265 138.622 223.658C140.479 225.923 143.412 226.095 145.394 225.085C146.517 224.513 147.317 223.59 147.95 222.521C148.921 220.882 149.382 219.073 149.693 217.13Z" fill="#F2D5A9"/>
<path d="M186.364 215.638C186.645 212.646 186.52 209.691 186.533 206.74C186.55 202.709 186.547 198.677 186.53 194.646C186.526 193.785 186.456 192.92 186.361 192.063C186.315 191.65 186.175 191.238 186.015 190.85C185.788 190.298 185.343 189.95 184.745 189.91C184.015 189.86 183.281 189.88 182.549 189.873C182.212 189.869 181.874 189.872 181.509 189.872C181.509 189.587 181.509 189.316 181.509 189.045C181.859 188.95 191.231 188.911 192.196 189.004C192.196 189.28 192.196 189.562 192.196 189.882C192.06 189.891 191.919 189.904 191.778 189.909C191.044 189.935 190.31 189.945 189.578 189.988C188.67 190.04 188.12 190.486 187.965 191.398C187.831 192.183 187.79 192.985 187.742 193.781C187.709 194.351 187.731 194.923 187.731 195.495C187.727 201.827 187.743 208.159 187.71 214.491C187.701 216.351 187.423 218.189 186.861 219.974C185.867 223.132 183.773 225.153 180.602 226.079C179.005 226.546 177.371 226.696 175.719 226.656C173.811 226.61 171.909 226.477 170.054 225.982C168.236 225.496 166.576 224.712 165.144 223.456C163.792 222.271 163.013 220.793 162.77 219.035C162.655 218.199 162.598 217.348 162.597 216.504C162.584 207.854 162.589 199.204 162.589 190.555C162.589 190.361 162.589 190.168 162.589 189.926C161.441 189.926 160.324 189.926 159.17 189.926C159.17 189.595 159.17 189.312 159.17 188.999C163.814 188.999 168.455 188.999 173.115 188.999C173.125 189.103 173.139 189.181 173.14 189.26C173.143 189.454 173.141 189.648 173.141 189.894C171.962 189.894 170.812 189.894 169.634 189.894C169.618 190.068 169.596 190.192 169.596 190.316C169.595 198.166 169.595 206.016 169.596 213.866C169.596 215.515 169.677 217.16 169.943 218.79C170.135 219.97 170.476 221.107 171.073 222.152C172.08 223.915 173.586 225.011 175.596 225.312C177.154 225.545 178.72 225.495 180.247 225.039C182.361 224.409 183.902 223.091 184.897 221.125C185.581 219.772 185.964 218.33 186.194 216.842C186.253 216.456 186.305 216.069 186.364 215.638Z" fill="#F2D5A9"/>
<path d="M102.523 194.718C102.523 193.105 102.523 191.542 102.523 189.929C101.355 189.929 100.222 189.929 99.0528 189.929C99.0528 189.597 99.0528 189.314 99.0528 189C103.562 189 108.073 189 112.615 189C112.615 189.293 112.615 189.576 112.615 189.902C111.35 189.902 110.101 189.902 108.819 189.902C108.819 201.584 108.819 213.223 108.819 224.896C108.963 224.906 109.104 224.924 109.245 224.924C111.855 224.918 114.466 224.933 117.076 224.889C118.083 224.872 119.099 224.787 120.092 224.618C122.274 224.249 123.718 222.957 124.481 220.889C124.959 219.595 125.207 218.253 125.291 216.882C125.348 215.938 125.369 214.992 125.407 214.048C125.412 213.937 125.425 213.827 125.436 213.687C125.731 213.687 125.997 213.687 126.291 213.687C126.291 217.75 126.291 221.789 126.291 225.859C117.217 225.859 108.153 225.859 99.0518 225.859C99.0518 225.572 99.0518 225.289 99.0518 224.936C100.179 224.91 101.313 224.937 102.409 224.921C102.456 224.88 102.47 224.871 102.48 224.859C102.49 224.847 102.505 224.832 102.505 224.818C102.512 214.801 102.517 204.784 102.523 194.718Z" fill="#F2D5A9"/>
</svg>
